<svg xmlns="http://www.w3.org/2000/svg" viewBox="0 0 900 420" role="img" aria-labelledby="title desc" preserveAspectRatio="xMidYMid meet">
<title id="title">IALS International Aviation Logistics Support</title><desc id="desc">A metallic skull centered inside a turbine ring with gold aviation wings.</desc>
<defs>
<linearGradient id="gold" x1="0" y1="0" x2="1" y2="1"><stop stop-color="#f7dfa0"/><stop offset=".28" stop-color="#d4a44c"/><stop offset=".58" stop-color="#825017"/><stop offset=".82" stop-color="#c68b32"/><stop offset="1" stop-color="#efd07b"/></linearGradient>
<linearGradient id="steel" x1="0" y1="0" x2="1" y2="1"><stop stop-color="#ece8df"/><stop offset=".28" stop-color="#979b9a"/><stop offset=".53" stop-color="#303638"/><stop offset=".76" stop-color="#d2c6ae"/><stop offset="1" stop-color="#4b5153"/></linearGradient>
<radialGradient id="dark"><stop stop-color="#1a2227"/><stop offset=".62" stop-color="#05090b"/><stop offset="1" stop-color="#000"/></radialGradient>
<filter id="shadow" x="-30%" y="-30%" width="160%" height="170%"><feDropShadow dx="0" dy="12" stdDeviation="10" flood-color="#000" flood-opacity=".82"/></filter>
</defs>
<g filter="url(#shadow)">
<g fill="url(#gold)" stroke="#211506" stroke-width="6" stroke-linejoin="round"><path d="M330 118 54 54l76 49-102 11 115 41-80 28 248 43 48-62z"/><path d="m570 118 276-64-76 49 102 11-115 41 80 28-248 43-48-62z"/><path opacity=".38" d="M319 148 102 98l65 37-79 21 218 42zM581 148l217-50-65 37 79 21-218 42z"/></g>
<circle cx="450" cy="150" r="128" fill="url(#steel)" stroke="#151a1c" stroke-width="13"/><circle cx="450" cy="150" r="100" fill="url(#dark)" stroke="url(#gold)" stroke-width="7"/>
<g fill="url(#steel)" opacity=".94"><path d="m450 48 12 45-12 24-12-24z"/><path d="m522 72-19 42-27 11 10-28z"/><path d="m555 150-45 13-24-13 24-13z"/><path d="m522 228-42-19-11-27 28 10z"/><path d="m450 252-12-45 12-24 12 24z"/><path d="m378 228 42-19 11-27-28 10z"/><path d="m345 150 45 13 24-13-24-13z"/><path d="m378 72 19 42 27 11-10-28z"/></g>
<g fill="url(#steel)" stroke="#111517" stroke-width="5"><path d="M450 83c-48 0-79 32-79 77 0 29 13 50 32 64l5 31h24v-25h12v25h12v-25h12v25h24l5-31c19-14 32-35 32-64 0-45-31-77-79-77z"/><path fill="#020405" d="m397 151 38 9-16 31-30-11z"/><path fill="#020405" d="m503 151-38 9 16 31 30-11z"/><path fill="#020405" d="m450 173-14 32h28z"/></g>
<path d="M382 264h136l-23 34h-90z" fill="url(#gold)" stroke="#211506" stroke-width="5"/>
<text x="450" y="354" text-anchor="middle" fill="url(#gold)" stroke="#201407" stroke-width="3" paint-order="stroke" font-family="Georgia,serif" font-size="92" font-weight="900">IALS</text>
<rect x="190" y="365" width="520" height="35" rx="4" fill="#020507" stroke="#a8752d" stroke-width="2"/>
<text x="450" y="389" text-anchor="middle" fill="#f2eee5" font-family="Arial,sans-serif" font-size="18" font-weight="700" letter-spacing="3">INTERNATIONAL AVIATION LOGISTICS SUPPORT</text>
</g></svg>